ply
format ascii 1.0
comment Created by Blender 2.79 (sub 0) - www.blender.org, source file: 'bird.blend'
element vertex 120
property float x
property float y
property float z
element face 234
property list uchar uint vertex_indices
end_header
0.112058 0.730435 -0.877926
0.369799 -0.164843 -1.106910
0.112058 -0.164843 -0.877926
1.588662 -0.164843 0.507838
2.135875 -0.164843 0.635707
1.603646 -0.164843 0.936813
1.588662 0.730435 0.507838
1.178946 -0.164843 0.322948
1.178946 0.730435 0.322948
1.308368 -0.164843 1.136031
1.603646 0.730435 0.936813
1.308368 0.730435 1.136031
2.068506 0.730435 0.610099
2.068506 -0.164843 0.610099
2.135875 0.730435 0.635707
1.178946 0.730435 0.322948
1.048633 0.730435 1.157201
1.308368 0.730435 1.136031
1.308368 -0.164843 1.136031
1.178946 -0.164843 0.322948
-0.271081 0.730435 -0.478777
1.048633 -0.164843 1.157202
1.235528 0.730435 0.081392
0.369799 0.730435 -1.106910
0.838995 -0.164843 1.043394
-0.271081 -0.164843 -0.478777
0.531404 -0.164843 1.020231
-0.910585 -0.164843 0.342931
0.838995 0.730435 1.043394
0.531404 -0.164843 1.020231
0.531404 0.730435 1.020231
1.048633 0.730435 1.157201
0.838995 0.730435 1.043394
0.838995 -0.164843 1.043394
1.048633 -0.164843 1.157202
0.221711 -0.164842 1.154447
-1.251227 -0.164843 0.879479
0.221711 -0.164842 1.154447
0.221711 0.730435 1.154447
-0.910585 0.730435 0.342931
-1.095294 -0.164843 0.183960
0.531404 0.730435 1.020231
-0.470877 0.730435 -0.577400
-1.310057 0.730435 0.115559
-1.095294 0.730435 0.183960
-0.470877 -0.164843 -0.577400
-0.729237 -0.164843 -1.607674
-1.093730 0.730435 -1.590821
-0.729237 0.730435 -1.607674
-0.603255 0.730435 -0.842256
-0.603255 -0.164843 -0.842256
-2.107791 -0.164843 0.154977
-1.310057 -0.164843 0.115559
-2.107791 0.730435 0.154977
1.517983 -0.164843 -2.064197
2.163944 -0.164843 -0.659900
1.235528 -0.164843 0.081392
1.235528 -0.164843 0.081392
1.235528 0.730435 0.081392
1.517983 0.730435 -2.064197
2.669047 0.730435 -1.103776
2.167921 0.730435 -2.471865
2.163944 -0.164843 -0.659900
2.669047 0.730435 -1.103776
2.163944 0.730435 -0.659899
2.163944 0.730435 -0.659899
2.461719 -0.164843 -3.151791
2.167921 -0.164843 -2.471865
3.074260 -0.164843 -1.839409
2.669047 -0.164843 -1.103776
2.669047 -0.164843 -1.103776
2.461719 0.730435 -3.151791
3.759876 0.730435 -4.235456
3.091627 0.730435 -3.802335
3.074260 0.730435 -1.839409
3.759876 -0.164842 -4.235456
3.759876 0.730435 -4.235456
3.074260 -0.164843 -1.839409
3.074260 0.730435 -1.839409
3.759876 -0.164842 -4.235456
3.091627 -0.164843 -3.802335
-1.251227 0.730435 0.879479
-0.075612 0.730435 1.678316
0.221711 0.730435 1.154447
-0.075612 -0.164842 1.678316
-0.652623 0.730435 3.090981
-0.075612 0.730435 1.678316
-0.075612 -0.164842 1.678316
-0.652623 -0.164842 3.090981
-1.842561 -0.164842 1.975898
-1.842561 0.730435 1.975898
-2.280304 0.730435 3.233819
-1.086939 0.730435 3.635893
-0.652623 0.730435 3.090981
-0.652623 -0.164842 3.090981
-2.280304 -0.164842 3.233819
-1.086939 -0.164842 3.635893
-1.911572 0.730435 4.200767
-1.086939 0.730435 3.635893
-1.086939 -0.164842 3.635893
-1.911572 -0.164842 4.200767
-2.807466 -0.164842 3.546617
-2.807466 0.730435 3.546617
-3.242146 0.730435 4.111490
-3.003302 0.730436 4.810641
-1.911572 0.730435 4.200767
-1.911572 -0.164842 4.200767
-3.242146 -0.164842 4.111490
-3.628247 0.730435 5.148455
-3.003302 -0.164842 4.810641
-3.003302 -0.164842 4.810641
-3.003302 0.730436 4.810641
-3.628247 -0.164842 5.148455
-2.199781 0.730435 -0.119685
-2.364945 -0.164843 -0.243862
-2.199781 -0.164843 -0.119685
-1.093730 -0.164843 -1.590821
-1.258895 0.730435 -1.714997
-2.364945 0.730435 -0.243862
-1.258895 -0.164843 -1.714997
3 0 1 2
3 3 4 5
3 6 7 8
3 3 9 7
3 9 10 11
3 6 11 10
3 12 4 13
3 3 12 13
3 10 4 14
3 6 14 12
3 15 16 17
3 11 18 9
3 9 19 7
3 8 17 11
3 2 20 0
3 19 21 2
3 0 22 23
3 17 21 18
3 2 24 25
3 25 26 27
3 28 29 30
3 31 32 16
3 0 32 16
3 21 33 34
3 31 33 28
3 27 35 36
3 30 37 38
3 39 40 27
3 28 41 32
3 20 41 32
3 24 29 33
3 42 43 44
3 20 45 42
3 27 45 25
3 39 42 44
3 46 47 48
3 49 46 48
3 50 51 46
3 45 52 50
3 43 51 52
3 42 50 49
3 49 53 43
3 44 52 40
3 23 54 1
3 1 55 56
3 2 56 19
3 19 57 7
3 7 58 8
3 8 22 15
3 59 60 61
3 62 63 64
3 56 62 57
3 58 62 64
3 23 65 59
3 58 65 22
3 61 66 67
3 67 68 69
3 64 60 65
3 54 69 55
3 54 61 67
3 55 70 62
3 71 72 73
3 74 75 76
3 69 77 70
3 63 77 74
3 61 78 71
3 63 78 60
3 75 72 76
3 79 73 72
3 74 72 78
3 66 79 68
3 71 80 66
3 68 75 77
3 81 82 83
3 38 82 83
3 39 36 81
3 30 83 41
3 39 83 41
3 26 37 29
3 84 85 86
3 87 88 84
3 35 84 37
3 38 84 86
3 36 87 89
3 81 89 90
3 91 92 93
3 85 92 93
3 89 94 95
3 90 95 91
3 86 93 82
3 90 93 82
3 96 97 98
3 99 100 96
3 94 96 88
3 88 98 85
3 95 99 101
3 91 101 102
3 103 104 105
3 97 104 105
3 101 106 107
3 102 107 103
3 98 105 92
3 102 105 92
3 108 109 104
3 104 110 109
3 106 110 100
3 97 110 111
3 107 109 112
3 107 108 103
3 113 114 115
3 53 115 51
3 51 116 46
3 53 47 113
3 117 114 118
3 47 118 113
3 116 114 119
3 47 119 117
3 0 23 1
3 3 13 4
3 6 3 7
3 3 5 9
3 9 5 10
3 6 8 11
3 12 14 4
3 3 6 12
3 10 5 4
3 6 10 14
3 15 0 16
3 11 17 18
3 9 18 19
3 8 15 17
3 2 25 20
3 19 18 21
3 0 15 22
3 17 16 21
3 2 21 24
3 25 24 26
3 28 33 29
3 31 28 32
3 0 20 32
3 21 24 33
3 31 34 33
3 27 26 35
3 30 29 37
3 39 44 40
3 28 30 41
3 20 39 41
3 24 26 29
3 42 49 43
3 20 25 45
3 27 40 45
3 39 20 42
3 46 116 47
3 49 50 46
3 50 52 51
3 45 40 52
3 43 53 51
3 42 45 50
3 49 48 53
3 44 43 52
3 23 59 54
3 1 54 55
3 2 1 56
3 19 56 57
3 7 57 58
3 8 58 22
3 59 65 60
3 62 70 63
3 56 55 62
3 58 57 62
3 23 22 65
3 58 64 65
3 61 71 66
3 67 66 68
3 64 63 60
3 54 67 69
3 54 59 61
3 55 69 70
3 71 78 72
3 74 77 75
3 69 68 77
3 63 70 77
3 61 60 78
3 63 74 78
3 75 79 72
3 79 80 73
3 74 76 72
3 66 80 79
3 71 73 80
3 68 79 75
3 81 90 82
3 38 86 82
3 39 27 36
3 30 38 83
3 39 81 83
3 26 35 37
3 84 88 85
3 87 94 88
3 35 87 84
3 38 37 84
3 36 35 87
3 81 36 89
3 91 102 92
3 85 98 92
3 89 87 94
3 90 89 95
3 86 85 93
3 90 91 93
3 96 100 97
3 99 106 100
3 94 99 96
3 88 96 98
3 95 94 99
3 91 95 101
3 103 108 104
3 97 111 104
3 101 99 106
3 102 101 107
3 98 97 105
3 102 103 105
3 108 112 109
3 104 111 110
3 106 109 110
3 97 100 110
3 107 106 109
3 107 112 108
3 113 118 114
3 53 113 115
3 51 115 116
3 53 48 47
3 117 119 114
3 47 117 118
3 116 115 114
3 47 116 119
